#!OML:ASF E:\inclinewalkrobotboard\Project 1\Capture day 1\Session 1\subject1.ASF
:FULLY-SPECIFIED
:DEGREES
440
root 8.02955 25.0714 -12.2791 -172.227 2.62923 179.836
lowerback -8.07279 0.340929 -6.8059
upperback 1.49785 1.07479 1.37451
thorax 5.97291 0.265077 5.42864
lowerneck 0.413389 0.0327184 -5.58224
upperneck 4.0838 -0.0232934 7.56723
head 1.23656 0.0662898 3.44313
rclavicle -7.95139e-016 -5.2181e-015
rhumerus -41.2851 -31.7145 -69.2109
rradius 24.3206
rwrist 18.1143
rhand -15.9306 -36.878
rfingers 7.12502
rthumb 10.2671 -66.6074
lclavicle -7.95139e-016 -5.2181e-015
lhumerus -31.3753 15.5478 80.5216
lradius 15.0441
lwrist -34.162
lhand -24.9926 -22.0727
lfingers 7.12502
lthumb 1.51871 7.90168
rfemur -7.59072 7.16121 18.5044
rtibia 14.2542
rfoot -25.7045 -4.18057
rtoes -20.4478
lfemur -6.1422 -9.79598 -22.0132
ltibia 13.6352
lfoot -30.0413 2.92699
ltoes -62.3167
441
root 8.03968 25.0757 -12.2536 -172.169 2.81989 180.014
lowerback -7.92425 0.364302 -6.73412
upperback 1.4726 1.08141 1.47913
thorax 5.85938 0.27426 5.49596
lowerneck -0.569476 0.316199 -5.95433
upperneck 4.37698 0.372617 8.03904
head 1.48215 0.284638 3.69618
rclavicle 1.27968e-015 5.36719e-015
rhumerus -40.7612 -31.3168 -69.712
rradius 24.3475
rwrist 17.7355
rhand -15.956 -36.7517
rfingers 7.12502
rthumb 10.2426 -66.4823
lclavicle 1.27968e-015 5.36719e-015
lhumerus -31.5259 14.917 80.9069
lradius 15.4531
lwrist -33.2299
lhand -24.7443 -22.0497
lfingers 7.12502
lthumb 1.75849 7.92284
rfemur -7.96902 7.57599 18.7207
rtibia 14.5618
rfoot -25.6857 -4.3643
rtoes -20.0731
lfemur -6.41634 -9.83566 -21.6719
ltibia 13.8134
lfoot -30.1245 3.15316
ltoes -62.3528
442
root 8.05039 25.0791 -12.2219 -172.046 3.22613 180.221
lowerback -7.6845 0.500612 -6.66629
upperback 1.34473 1.2323 1.5673
thorax 5.56425 0.365404 5.56071
lowerneck -0.364353 0.306453 -6.07856
upperneck 4.25086 0.356031 8.09342
head 1.40602 0.270132 3.73588
rclavicle -4.71492e-015 -1.9133e-014
rhumerus -40.4299 -31.1286 -69.9763
rradius 24.2982
rwrist 17.476
rhand -16.1277 -36.9417
rfingers 7.12502
rthumb 10.077 -66.6804
lclavicle -4.71492e-015 -1.9133e-014
lhumerus -31.8391 14.2369 81.2338
lradius 15.9313
lwrist -32.5734
lhand -24.7036 -21.6977
lfingers 7.12502
lthumb 1.79779 8.27451
rfemur -8.53784 8.13244 18.9498
rtibia 14.9743
rfoot -25.6042 -4.57511
rtoes -19.6992
lfemur -6.65752 -9.85568 -21.284
ltibia 13.7808
lfoot -30.1611 3.62409
ltoes -62.4376
443
root 8.04104 25.0721 -12.2694 -172.237 2.68952 179.944
lowerback -8.15525 0.26407 -6.727
upperback 1.47988 0.960977 1.52289
thorax 6.01591 0.207773 5.52933
lowerneck -0.419774 0.385393 -6.24455
upperneck 4.28135 0.462516 8.1947
head 1.41835 0.323456 3.80634
rclavicle 7.90169e-015 4.57205e-015
rhumerus -40.2083 -30.7246 -70.2483
rradius 24.4164
rwrist 17.1245
rhand -16.1833 -36.8971
rfingers 7.12502
rthumb 10.0233 -66.6384
lclavicle 7.90169e-015 4.57205e-015
lhumerus -32.0118 14.0383 81.4654
lradius 16.129
lwrist -32.3262
lhand -25.0245 -21.6294
lfingers 7.12502
lthumb 1.48786 8.34519
rfemur -7.59532 7.03847 18.6676
rtibia 14.1976
rfoot -25.5393 -3.99956
rtoes -20.0561
lfemur -5.86462 -10.2266 -21.9691
ltibia 13.1877
lfoot -29.9971 3.41107
ltoes -62.4453
444
root 8.04589 25.0742 -12.2576 -172.297 2.66288 179.904
lowerback -8.02834 0.258761 -6.77275
upperback 1.47228 0.947616 1.55446
thorax 5.9365 0.202417 5.5843
lowerneck 0.0636715 0.300273 -6.14958
upperneck 4.03051 0.33954 8.02487
head 1.25857 0.249197 3.71888
rclavicle 7.03201e-015 -8.84592e-015
rhumerus -40.0137 -30.1456 -70.6714
rradius 24.8178
rwrist 16.6346
rhand -16.2772 -36.4322
rfingers 7.12502
rthumb 9.93277 -66.1779
lclavicle 7.03201e-015 -8.84592e-015
lhumerus -31.8433 14.2294 81.5989
lradius 16.0297
lwrist -32.4706
lhand -25.1323 -21.8958
lfingers 7.12502
lthumb 1.38377 8.07949
rfemur -7.61198 7.18791 18.6419
rtibia 14.238
rfoot -25.5488 -4.1157
rtoes -19.7389
lfemur -5.88736 -10.256 -21.9558
ltibia 13.2421
lfoot -29.9373 3.47003
ltoes -62.39
445
root 8.05341 25.0769 -12.2413 -172.302 2.66916 179.819
lowerback -7.91901 0.300126 -6.8691
upperback 1.47743 1.00525 1.54781
thorax 5.87025 0.230132 5.63675
lowerneck -0.923866 0.439384 -6.49165
upperneck 4.45955 0.546145 8.60737
head 1.56357 0.38148 4.01121
rclavicle -2.43511e-015 1.30204e-014
rhumerus -39.8226 -29.6787 -71.0955
rradius 25.2213
rwrist 16.2059
rhand -16.3098 -36.6957
rfingers 7.12502
rthumb 9.90129 -66.4428
lclavicle -2.43511e-015 1.30204e-014
lhumerus -31.5546 14.3663 81.7145
lradius 15.9104
lwrist -32.6171
lhand -24.9018 -22.0697
lfingers 7.12502
lthumb 1.60639 7.90404
rfemur -7.79475 7.37191 18.5628
rtibia 14.4363
rfoot -25.5577 -4.37409
rtoes -20.2698
lfemur -6.04764 -10.2643 -21.9545
ltibia 13.3696
lfoot -29.9719 3.49488
ltoes -62.3947
446
root 8.06225 25.0779 -12.2211 -172.268 2.63026 179.928
lowerback -7.75873 0.360822 -6.76105
upperback 1.47946 1.06286 1.57154
thorax 5.77317 0.265843 5.60354
lowerneck -1.22673 0.229219 -6.93432
upperneck 4.51289 0.272832 9.02001
head 1.66467 0.251965 4.24906
rclavicle -4.47266e-016 -4.77083e-015
rhumerus -39.6027 -29.432 -71.4299
rradius 25.4984
rwrist 15.9403
rhand -16.2264 -37.3426
rfingers 7.12502
rthumb 9.98172 -67.086
lclavicle -4.47266e-016 -4.77083e-015
lhumerus -31.4258 13.8831 82.0344
lradius 16.0955
lwrist -32.3527
lhand -24.9754 -22.0251
lfingers 7.12502
lthumb 1.53537 7.94914
rfemur -8.02663 7.56583 18.7251
rtibia 14.6618
rfoot -25.5808 -4.60307
rtoes -20.5484
lfemur -6.28552 -10.2331 -21.6912
ltibia 13.5112
lfoot -29.9483 3.43553
ltoes -62.4041
447
root 8.07674 25.0768 -12.1929 -172.13 2.31138 180.104
lowerback -7.60613 0.455601 -6.58857
upperback 1.24939 1.15978 1.51816
thorax 5.43106 0.341083 5.45188
lowerneck -0.374858 0.263112 -6.54511
upperneck 4.1788 -0.0314859 8.9019
head 1.41859 -0.0513929 4.10823
rclavicle -1.19333e-014 -4.47266e-015
rhumerus -40.0394 -29.5081 -71.4714
rradius 25.8363
rwrist 15.6047
rhand -16.1982 -37.2213
rfingers 7.12502
rthumb 10.0089 -66.9633
lclavicle -1.19333e-014 -4.47266e-015
lhumerus -31.6894 12.4238 82.4514
lradius 16.4557
lwrist -31.6831
lhand -24.9054 -21.6923
lfingers 7.12502
lthumb 1.60298 8.2814
rfemur -8.24931 7.60384 19.0264
rtibia 14.7145
rfoot -25.562 -4.89565
rtoes -19.8098
lfemur -6.7684 -10.0565 -21.2609
ltibia 13.8224
lfoot -29.8518 2.9794
ltoes -62.4184
448
root 8.07983 25.0793 -12.1927 -172.195 2.4345 180.118
lowerback -7.68786 0.528372 -6.50295
upperback 1.37559 1.2574 1.50879
thorax 5.5988 0.38186 5.40903
lowerneck -1.39824 0.482275 -6.88837
upperneck 4.3905 0.287084 9.45451
head 1.65148 0.133589 4.39329
rclavicle -3.15571e-015 -3.08116e-015
rhumerus -39.5337 -29.3931 -71.8036
rradius 25.8393
rwrist 15.3642
rhand -16.1149 -36.6902
rfingers 7.12502
rthumb 10.0893 -66.4283
lclavicle -3.15571e-015 -3.08116e-015
lhumerus -31.4504 12.2816 82.6771
lradius 16.5295
lwrist -31.5922
lhand -24.6696 -21.5952
lfingers 7.12502
lthumb 1.83072 8.3767
rfemur -8.19249 7.61826 19.0435
rtibia 14.7018
rfoot -25.5118 -4.79979
rtoes -20.1859
lfemur -6.65756 -10.0029 -21.2515
ltibia 13.7757
lfoot -29.9234 3.0412
ltoes -62.457
449
root 8.0829 25.0818 -12.1908 -172.257 2.60889 180.036
lowerback -7.7217 0.60411 -6.54581
upperback 1.44086 1.36921 1.45687
thorax 5.67188 0.43171 5.39358
lowerneck -1.18346 0.462686 -6.87281
upperneck 4.16973 0.265778 9.44547
head 1.54124 0.118029 4.38109
rclavicle 6.95746e-015 3.13086e-015
rhumerus -39.2038 -29.3443 -72.054
rradius 25.8693
rwrist 15.2935
rhand -16.0961 -36.1668
rfingers 7.12502
rthumb 10.1075 -65.904
lclavicle 6.95746e-015 3.13086e-015
lhumerus -31.1888 12.4279 82.7245
lradius 16.4221
lwrist -31.655
lhand -24.7031 -21.8277
lfingers 7.12502
lthumb 1.79835 8.14446
rfemur -8.20669 7.61594 18.9431
rtibia 14.7903
rfoot -25.5195 -4.6724
rtoes -20.335
lfemur -6.58136 -9.9373 -21.369
ltibia 13.7841
lfoot -29.9563 3.14015
ltoes -62.423
450
root 8.08671 25.0801 -12.1926 -172.254 2.64835 180.067
lowerback -7.80486 0.507915 -6.52217
upperback 1.47036 1.24074 1.53379
thorax 5.76766 0.363103 5.44962
lowerneck -0.911864 0.492574 -6.84788
upperneck 3.88137 0.331263 9.19917
head 1.38982 0.145145 4.28108
rclavicle -6.5102e-015 -1.13307e-014
rhumerus -38.9762 -28.7288 -72.4079
rradius 26.1451
rwrist 15.1289
rhand -16.1563 -36.0063
rfingers 7.12502
rthumb 10.0493 -65.7464
lclavicle -6.5102e-015 -1.13307e-014
lhumerus -30.9676 12.7709 82.8571
lradius 16.3847
lwrist -31.3268
lhand -24.6664 -21.758
lfingers 7.12502
lthumb 1.83376 8.21388
rfemur -8.17186 7.57663 18.9942
rtibia 14.7318
rfoot -25.5006 -4.58789
rtoes -21.2055
lfemur -6.57733 -9.89676 -21.3429
ltibia 13.8198
lfoot -29.9201 3.14602
ltoes -62.3281
